<?xml version="1.0" encoding="UTF-8" standalone="no"?>
<!DOCTYPE svg PUBLIC "-//W3C//DTD SVG 1.1//EN"
 "http://www.w3.org/Graphics/SVG/1.1/DTD/svg11.dtd">
<!-- Generated by graphviz version 3.0.0 (20220226.1711)
 -->
<!-- Pages: 1 -->
<svg width="514pt" height="260pt"
 viewBox="0.00 0.00 513.54 260.00" xmlns="http://www.w3.org/2000/svg" xmlns:xlink="http://www.w3.org/1999/xlink">
<g id="graph0" class="graph" transform="scale(1 1) rotate(0) translate(4 256)">
<polygon fill="white" stroke="transparent" points="-4,4 -4,-256 509.54,-256 509.54,4 -4,4"/>
<!-- [root] aws_instance.tf&#45;ec2 (expand) -->
<g id="node1" class="node">
<title>[root] aws_instance.tf&#45;ec2 (expand)</title>
<polygon fill="none" stroke="black" points="242.77,-108 118.77,-108 118.77,-72 242.77,-72 242.77,-108"/>
<text text-anchor="middle" x="180.77" y="-86.3" font-family="Times,serif" font-size="14.00">aws_instance.tf&#45;ec2</text>
</g>
<!-- [root] provider[&quot;registry.terraform.io/hashicorp/aws&quot;] -->
<g id="node3" class="node">
<title>[root] provider[&quot;registry.terraform.io/hashicorp/aws&quot;]</title>
<polygon fill="none" stroke="black" points="252.77,-36 0.23,-18 252.77,0 505.3,-18 252.77,-36"/>
<text text-anchor="middle" x="252.77" y="-14.3" font-family="Times,serif" font-size="14.00">provider[&quot;registry.terraform.io/hashicorp/aws&quot;]</text>
</g>
<!-- [root] aws_instance.tf&#45;ec2 (expand)&#45;&gt;[root] provider[&quot;registry.terraform.io/hashicorp/aws&quot;] -->
<g id="edge1" class="edge">
<title>[root] aws_instance.tf&#45;ec2 (expand)&#45;&gt;[root] provider[&quot;registry.terraform.io/hashicorp/aws&quot;]</title>
<path fill="none" stroke="black" d="M198.57,-71.7C207.72,-62.79 219.02,-51.81 228.92,-42.19"/>
<polygon fill="black" stroke="black" points="231.43,-44.62 236.16,-35.14 226.55,-39.61 231.43,-44.62"/>
</g>
<!-- [root] aws_s3_bucket.tf&#45;s3 (expand) -->
<g id="node2" class="node">
<title>[root] aws_s3_bucket.tf&#45;s3 (expand)</title>
<polygon fill="none" stroke="black" points="388.77,-108 260.77,-108 260.77,-72 388.77,-72 388.77,-108"/>
<text text-anchor="middle" x="324.77" y="-86.3" font-family="Times,serif" font-size="14.00">aws_s3_bucket.tf&#45;s3</text>
</g>
<!-- [root] aws_s3_bucket.tf&#45;s3 (expand)&#45;&gt;[root] provider[&quot;registry.terraform.io/hashicorp/aws&quot;] -->
<g id="edge2" class="edge">
<title>[root] aws_s3_bucket.tf&#45;s3 (expand)&#45;&gt;[root] provider[&quot;registry.terraform.io/hashicorp/aws&quot;]</title>
<path fill="none" stroke="black" d="M306.97,-71.7C297.81,-62.79 286.52,-51.81 276.62,-42.19"/>
<polygon fill="black" stroke="black" points="278.98,-39.61 269.37,-35.14 274.1,-44.62 278.98,-39.61"/>
</g>
<!-- [root] provider[&quot;registry.terraform.io/hashicorp/aws&quot;] (close) -->
<g id="node4" class="node">
<title>[root] provider[&quot;registry.terraform.io/hashicorp/aws&quot;] (close)</title>
<ellipse fill="none" stroke="black" cx="252.77" cy="-162" rx="227.46" ry="18"/>
<text text-anchor="middle" x="252.77" y="-158.3" font-family="Times,serif" font-size="14.00">[root] provider[&quot;registry.terraform.io/hashicorp/aws&quot;] (close)</text>
</g>
<!-- [root] provider[&quot;registry.terraform.io/hashicorp/aws&quot;] (close)&#45;&gt;[root] aws_instance.tf&#45;ec2 (expand) -->
<g id="edge3" class="edge">
<title>[root] provider[&quot;registry.terraform.io/hashicorp/aws&quot;] (close)&#45;&gt;[root] aws_instance.tf&#45;ec2 (expand)</title>
<path fill="none" stroke="black" d="M234.97,-143.7C226.16,-135.14 215.39,-124.66 205.77,-115.3"/>
<polygon fill="black" stroke="black" points="207.97,-112.57 198.36,-108.1 203.09,-117.58 207.97,-112.57"/>
</g>
<!-- [root] provider[&quot;registry.terraform.io/hashicorp/aws&quot;] (close)&#45;&gt;[root] aws_s3_bucket.tf&#45;s3 (expand) -->
<g id="edge4" class="edge">
<title>[root] provider[&quot;registry.terraform.io/hashicorp/aws&quot;] (close)&#45;&gt;[root] aws_s3_bucket.tf&#45;s3 (expand)</title>
<path fill="none" stroke="black" d="M270.57,-143.7C279.37,-135.14 290.15,-124.66 299.77,-115.3"/>
<polygon fill="black" stroke="black" points="302.45,-117.58 307.18,-108.1 297.57,-112.57 302.45,-117.58"/>
</g>
<!-- [root] root -->
<g id="node5" class="node">
<title>[root] root</title>
<ellipse fill="none" stroke="black" cx="252.77" cy="-234" rx="47.39" ry="18"/>
<text text-anchor="middle" x="252.77" y="-230.3" font-family="Times,serif" font-size="14.00">[root] root</text>
</g>
<!-- [root] root&#45;&gt;[root] provider[&quot;registry.terraform.io/hashicorp/aws&quot;] (close) -->
<g id="edge5" class="edge">
<title>[root] root&#45;&gt;[root] provider[&quot;registry.terraform.io/hashicorp/aws&quot;] (close)</title>
<path fill="none" stroke="black" d="M252.77,-215.7C252.77,-207.98 252.77,-198.71 252.77,-190.11"/>
<polygon fill="black" stroke="black" points="256.27,-190.1 252.77,-180.1 249.27,-190.1 256.27,-190.1"/>
</g>
</g>
</svg>
